<?xml version="1.0" encoding="UTF-8"?>
<svg version="1.1" xmlns="http://www.w3.org/2000/svg" width="261" height="237">
<path d="M0 0 C2.69683687 2.13061787 2.97317916 2.89654821 3.875 6.375 C4.01492604 10.43285509 3.50204885 11.87243893 1 15 C-2.13843344 17.09228896 -2.91586307 17.2567133 -6.49975586 17.30297852 C-7.40757309 17.31962051 -8.31539032 17.33626251 -9.25071716 17.35340881 C-10.22887894 17.36182297 -11.20704071 17.37023712 -12.21484375 17.37890625 C-13.72577354 17.40439796 -13.72577354 17.40439796 -15.26722717 17.43040466 C-18.49058747 17.48358781 -21.71393533 17.52384124 -24.9375 17.5625 C-28.15742686 17.60646379 -31.37725511 17.65322766 -34.59706116 17.70530701 C-36.60141105 17.73718945 -38.60584746 17.7641026 -40.6103363 17.78553772 C-41.52130569 17.79902756 -42.43227509 17.8125174 -43.37084961 17.82641602 C-44.56973061 17.84068382 -44.56973061 17.84068382 -45.79283142 17.85523987 C-47.97510101 17.99836697 -49.90142476 18.39993376 -52 19 C-53.62801769 29.41517861 -54.3159373 39.60485613 -54.37890625 50.14453125 C-54.39516057 51.64939876 -54.41234813 53.15425643 -54.43040466 54.65910339 C-54.47555866 58.5827264 -54.51060478 62.50636485 -54.54260254 66.43011475 C-54.6011418 73.43920405 -54.67596888 80.4481346 -54.75390625 87.45703125 C-54.76188107 88.20479576 -54.76985588 88.95256027 -54.77807236 89.72298431 C-54.87425726 98.45613217 -55.06825269 107.16067468 -55.64631653 115.87724304 C-56.18353485 124.19868683 -56.22241821 132.52631325 -56.24023438 140.86279297 C-56.25011494 143.65751047 -56.28136835 146.45154188 -56.3125 149.24609375 C-56.31901771 151.05207908 -56.32427299 152.85806951 -56.328125 154.6640625 C-56.3404718 155.48500397 -56.3528186 156.30594543 -56.36553955 157.15176392 C-56.34410019 162.73945157 -55.35738578 166.91028644 -53 172 C-47.57136572 175.37455645 -40.37633348 175.16810464 -34.13671875 175.31640625 C-33.38646927 175.33718735 -32.63621979 175.35796844 -31.86323547 175.37937927 C-30.27565689 175.42246677 -28.68802221 175.46352932 -27.1003418 175.50268555 C-24.7327523 175.56137819 -22.36542663 175.62679461 -19.99804688 175.69335938 C-3.36116017 176.14377498 13.22287772 175.98018583 29.85900879 175.57330322 C45.29117789 175.19822662 60.71177212 174.9584341 76.1484375 175.0390625 C77.5057268 175.04509886 78.86301643 175.05106024 80.2203064 175.0569458 C86.83583955 175.08763942 93.45070115 175.13805147 100.06591797 175.21289062 C102.48665041 175.22837946 104.90738605 175.24337792 107.328125 175.2578125 C108.43739349 175.27647369 109.54666199 175.29513489 110.68954468 175.31436157 C111.71399689 175.31777557 112.7384491 175.32118958 113.79394531 175.32470703 C114.68317688 175.33438507 115.57240845 175.34406311 116.48858643 175.35403442 C119.67478863 174.90487493 121.43930558 173.94286842 124 172 C126.69841457 168.2713767 127.37497277 165.68974595 127.3742218 161.11743164 C127.38123611 159.93980255 127.38825043 158.76217346 127.39547729 157.54885864 C127.38783356 156.26558685 127.38018982 154.98231506 127.37231445 153.66015625 C127.37474376 152.28823572 127.37846443 150.91631696 127.38337708 149.54440308 C127.39277078 145.82537895 127.38337356 142.1066187 127.37004495 138.3876152 C127.35871523 134.4928662 127.36283913 130.59812989 127.36479187 126.70336914 C127.36567437 120.16320493 127.3546038 113.62314447 127.33618164 107.08300781 C127.31501468 99.52522483 127.31150441 91.9675938 127.3177436 84.40978718 C127.32344142 77.13489593 127.31778666 69.86005811 127.30657005 62.58517456 C127.30192961 59.4911907 127.30104781 56.39723957 127.3031559 53.30325317 C127.30504176 49.65886349 127.29691212 46.0146281 127.2810955 42.37027359 C127.27484017 40.3972394 127.27835648 38.42418179 127.28216553 36.45114136 C127.27508072 35.27351227 127.26799591 34.09588318 127.26069641 32.88256836 C127.25864354 31.86126328 127.25659067 30.83995819 127.25447559 29.78770447 C126.98079055 26.78956616 126.38502606 24.66944733 125 22 C121.90660336 19.93773557 121.23375341 19.74862043 117.73144531 19.72875977 C116.87335266 19.71857315 116.01526001 19.70838654 115.13116455 19.69789124 C114.2061615 19.69575119 113.28115845 19.69361115 112.328125 19.69140625 C110.36458047 19.66623764 108.40103888 19.64083975 106.4375 19.61523438 C103.34571142 19.58654313 100.25397391 19.56252419 97.16210938 19.54370117 C94.17550708 19.52196566 91.18951454 19.4825104 88.203125 19.44140625 C86.82776581 19.44123253 86.82776581 19.44123253 85.42462158 19.4410553 C79.88070539 19.35612485 75.8955329 18.67374555 71 16 C69.46402546 12.92805092 69.7734962 10.39755707 70 7 C71.48670223 2.78767702 73.26634331 0.24792441 77.06130981 -2.16387939 C81.10965555 -3.90985475 85.49675379 -3.64700482 89.83984375 -3.6796875 C91.40032188 -3.7116069 91.40032188 -3.7116069 92.99232483 -3.74417114 C95.18670708 -3.78495964 97.38128218 -3.81632663 99.57592773 -3.83886719 C102.923169 -3.87484596 106.26861269 -3.94281353 109.61523438 -4.015625 C111.75257329 -4.05137533 113.88994385 -4.08529048 116.02734375 -4.1171875 C117.02233383 -4.13683563 118.01732391 -4.15648376 119.04246521 -4.17672729 C124.46345255 -4.21855281 128.87529403 -3.78316907 134 -2 C134.74507812 -1.81179687 135.49015625 -1.62359375 136.2578125 -1.4296875 C141.42290201 0.10471147 143.48436708 2.39913836 146.08984375 7.0625 C148.05638969 11.24879522 148.11612272 14.89081712 148.0625 19.4140625 C148.05682007 20.50767593 148.05682007 20.50767593 148.05102539 21.62338257 C148.03474493 24.73548363 148.00683058 27.84745206 147.97949219 30.95947266 C147.84258779 41.9662534 147.84258779 41.9662534 148.78125 52.92041016 C149.04362609 55.41473999 149.02823021 57.85173808 149 60.359375 C148.94462556 66.04316595 149.43210431 71.59941387 150 77.25 C150.96519978 87.68700466 151.34855627 97.84617011 150.76953125 108.328125 C150.67912484 109.98955281 150.58931537 111.65101318 150.5 113.3125 C150.45182129 114.1897876 150.40364258 115.0670752 150.35400391 115.97094727 C150.03187036 122.7385774 149.97440325 129.48836614 150.00390625 136.26171875 C150.0074411 137.17883133 150.01097595 138.09594391 150.01461792 139.04084778 C150.03560619 143.67767079 150.0713661 148.31388291 150.125 152.95043945 C150.36145786 180.67408956 150.36145786 180.67408956 144.66015625 188.453125 C138.97973236 193.74594349 130.75995195 194.59832502 123.37109375 195.60546875 C121.05077233 195.75540915 121.05077233 195.75540915 120 197 C117.43580482 197.38568388 114.8881303 197.71257134 112.3125 198 C111.62349609 198.0825 110.93449219 198.165 110.22460938 198.25 C97.66524182 199.69438369 85.05191383 200.24736707 72.42260742 200.61254883 C70.76391005 200.66257536 69.10536485 200.71792706 67.44702148 200.77856445 C64.99485405 200.868116 62.5426341 200.94154633 60.08984375 201.01171875 C59.00956154 201.05530769 59.00956154 201.05530769 57.90745544 201.09977722 C53.40135462 201.20662006 49.22086149 200.76098306 44.77441406 200.00488281 C37.96852203 198.88576409 31.40219731 198.7934484 24.51953125 198.91015625 C21.94596563 198.93060348 19.37239783 198.95077669 16.79882812 198.97070312 C12.82645718 199.01376735 8.85431011 199.06192605 4.88208008 199.11645508 C-11.12733472 199.31971427 -26.63152007 198.83509751 -42.50463867 196.65405273 C-47.41298454 196.00288701 -52.18155073 195.85112028 -57.125 196 C-62.95188161 196.09813695 -66.97807241 196.09041698 -72 193 C-76.75034641 187.38595424 -77.60112699 179.08586173 -78 172 C-77.86116639 170.46133232 -77.69745499 168.92480584 -77.515625 167.390625 C-76.81927596 161.26436355 -77.1379325 155.27089556 -77.4375 149.125 C-78.26503054 128.6192801 -78.45610896 108.49676363 -76.35021973 88.06546021 C-75.17775184 76.61807238 -74.69672758 65.25314302 -74.5 53.75 C-74.28542086 41.92568614 -73.80593433 30.20787845 -72.625 18.4375 C-72.51091797 17.24286133 -72.39683594 16.04822266 -72.27929688 14.81738281 C-72.15876953 13.72135742 -72.03824219 12.62533203 -71.9140625 11.49609375 C-71.7586499 10.07574829 -71.7586499 10.07574829 -71.60009766 8.62670898 C-70.903443 5.57735687 -69.8231875 3.53384295 -68 1 C-59.17718576 -4.14664164 -48.46037567 -3.10570852 -38.578125 -2.9375 C-7.76514907 -3.47571792 -7.76514907 -3.47571792 0 0 Z " fill="#FFCC00" transform="translate(94,22)"/>
<path d="M0 0 C8.64966278 7.29043005 13.36616644 17.16906928 14.5703125 28.375 C15.00163715 41.71730926 9.65258552 50.01281205 0.875 59.5625 C-3.61443205 63.94194597 -8.95779744 65.86093248 -14.8125 67.8125 C-14.79678955 68.75569092 -14.7810791 69.69888184 -14.76489258 70.6706543 C-14.71363993 74.18373148 -14.67609009 77.69640898 -14.64770508 81.2097168 C-14.63265647 82.72768438 -14.61221262 84.24560876 -14.58618164 85.76342773 C-14.54962347 87.95046677 -14.53273477 90.13692896 -14.51953125 92.32421875 C-14.5038208 93.63865967 -14.48811035 94.95310059 -14.47192383 96.30737305 C-14.83208832 100.01409824 -15.56690974 101.88023314 -17.8125 104.8125 C-20.47164568 106.06975298 -22.90773241 106.15857583 -25.8125 105.8125 C-29.11513569 103.87399644 -30.43638667 102.19182274 -31.44873047 98.47924805 C-32.88859928 90.15651396 -33.12040165 82.02036442 -33.07324219 73.60058594 C-33.06238569 71.28815281 -33.07326942 68.97647421 -33.0859375 66.6640625 C-33.08461799 65.18228997 -33.08205992 63.7005179 -33.078125 62.21875 C-33.08217346 61.5333313 -33.08622192 60.8479126 -33.09039307 60.14172363 C-33.05539954 56.57998614 -32.98872646 53.72475101 -30.8125 50.8125 C-28.17911906 49.96226042 -25.76012724 49.3346214 -23.0625 48.8125 C-14.63392548 47.14530944 -8.84580061 44.14673803 -3.8125 36.8125 C-1.93893528 30.72341466 -3.31068473 25.50093398 -5.8125 19.8125 C-8.79891077 14.85060633 -12.25858307 11.93100512 -17.81640625 10.25 C-24.9278308 8.69133161 -30.50313377 10.56707304 -36.8125 13.8125 C-39.81455678 15.95682627 -41.38506423 17.36083133 -42.43359375 20.921875 C-43.28224849 26.1362897 -42.64884234 29.25409266 -39.8125 33.8125 C-37.83088552 37.20955339 -36.78227329 39.04171892 -36.9375 43 C-37.85514086 45.9495599 -38.24923662 47.13312054 -40.8125 48.8125 C-44.8022074 50.17262752 -46.45403214 49.96343383 -50.375 48.3125 C-58.40268902 43.06090608 -60.73446829 34.74692511 -62.8125 25.8125 C-64.08734044 18.34373785 -61.20734009 11.36700364 -57.078125 5.23828125 C-43.18671977 -9.63510263 -16.0305872 -11.50776711 0 0 Z " fill="#FFCC00" transform="translate(157.8125,51.1875)"/>
<path d="M0 0 C5.72316984 0.76078391 11.45985236 0.83212219 17.22851562 0.9453125 C22.47469343 1.12634524 26.36180539 1.54327014 30.87890625 4.515625 C32.42477501 7.60736252 32.17250146 10.10992052 31.87890625 13.515625 C30.0118212 15.88059939 28.55829194 17.17593215 25.87890625 18.515625 C15.00543634 19.10276979 4.24506346 18.57515921 -6.55859375 17.265625 C-7.53465576 17.15637695 -8.51071777 17.04712891 -9.51635742 16.93457031 C-14.73885834 16.23768813 -18.43057899 15.59939133 -22.12109375 11.515625 C-23.18359375 8.015625 -23.18359375 8.015625 -23.12109375 4.515625 C-21.07922146 1.28266053 -19.64544422 0.63900158 -15.93359375 -0.234375 C-10.54629936 -0.58764021 -5.35003997 -0.83029406 0 0 Z " fill="#FFCC00" transform="translate(79.12109375,129.484375)"/>
<path d="M0 0 C1.2271875 0.07927734 2.454375 0.15855469 3.71875 0.24023438 C9.95501024 0.70930373 15.26960436 1.18423948 20.75 4.3125 C22.31700442 7.44650885 22.60164561 10.94405095 21.75 14.3125 C19.64782095 16.78415294 18.02477245 18.17389769 14.72460938 18.53271484 C12.23668117 18.48004057 9.79022736 18.29383685 7.3125 18.0625 C1.39483285 17.61612086 -4.44579822 17.2549403 -10.3828125 17.40625 C-11.37482666 17.42977539 -12.36684082 17.45330078 -13.38891602 17.47753906 C-15.3067227 17.53327157 -17.22409969 17.60751727 -19.14038086 17.70214844 C-25.64383012 17.85823602 -25.64383012 17.85823602 -28.8359375 14.984375 C-30.5809978 11.68707875 -30.93942064 9.98941008 -30.25 6.3125 C-28.25196717 3.28100191 -26.5423183 1.70977507 -23.03344727 0.63110352 C-15.21389059 -0.88390337 -7.91140588 -0.64385378 0 0 Z " fill="#FFCC00" transform="translate(188.25,131.6875)"/>
</svg>
